<svg id="Capa_1" data-name="Capa 1" xmlns="http://www.w3.org/2000/svg" viewBox="0 0 1278.4 1040.34"><defs><style>.cls-1{fill:#fad5d4;}.cls-2{fill:#030303;}.cls-3{fill:#f8d4d3;}.cls-4{fill:#d33c30;}</style></defs><path class="cls-1" d="M1129.69,493.9a69,69,0,0,1,4.56,7.06c13.42,27.27,36.09,45.44,61.15,60.75,15.61,9.54,33.1,14.77,51.56,16.21,3,.24,6,1.36,10.39,2.42-6.41,16.11-11.84,31.59-18.64,46.45a417.39,417.39,0,0,1-44.78,75.5c-6.25,8.41-13.25,16.27-19.45,24.72-4.76,6.48-10.32,5.52-16.54,3.23a291.59,291.59,0,0,1-70-37.1c-27-19.51-53.44-40-72.57-68l-.13-.07,2.64.09c2.88-.18,5.75-.55,8.62-.53,34.55.2,69.1.29,103.63.83,7.39.11,10.23-3.21,10.21-9.74-.06-14-.33-27.94-.69-41.91-.17-6.19-2.71-9.32-9.86-9-35,1.4-70.1,2.41-105.16,3.35-13.8.38-27.61.23-41.42.32-1.73-1.78-4.16-3.25-5.08-5.38-7.76-17.84-14.5-36.17-23.1-53.59-4.78-9.67-12.52-17.88-18.92-26.74-.16-2.61-.47-5.22-.47-7.82,0-39.49,0-79,0-119.63l-38.8,5.29c0,14.81,0,29,0,43.21s-.19,28.46-.29,42.69c-1.72-.52-3.6-.74-5.13-1.59-21.41-12-44.82-16.08-68.91-17.47q1.15-30.57,2.3-61.16H784.48c-.65,18.14-1.27,35.71-1.9,53.29-5.76-1.32-11.57-2.47-17.27-4-8.35-2.22-16.63-4.71-24.93-7.09-.08-8.93-.89-17.92-.07-26.77,1-10.88-9.55-21.56-21.11-21.05-20.45.9-41,.1-61.47,0-9.25-8.49-18.62-16.86-27.72-25.5-25.91-24.61-46.75-52.86-61.07-85.74-10.53-24.17-20.47-48.63-32.15-72.23-4.5-9.08-12.11-17.33-20-23.82a407.93,407.93,0,0,0-43.5-30.89c-15-9.3-32.6-11-49.77-13.26q-17-2.28-34-4.5c-.09-.76-.18-1.52-.26-2.28,10.22-4.06,20.28-8.62,30.7-12.09,28.56-9.5,57.09-19.15,86-27.56,17.8-5.18,36.18-8.42,54.39-12.14,15.38-3.15,30.86-5.81,46.33-8.52,8.76-1.54,17.56-3.46,26.38-3.78a17.85,17.85,0,0,1,12.29,5c19.41,20.79,36.2,43.65,48.2,69.5,11.1,23.91,19.73,49,31.68,72.45,6.13,12,16.3,22.44,26.12,32.08,14.85,14.57,31.66,27.08,51.63,33.78a185.75,185.75,0,0,0,36.61,8.21c29.11,3.54,57.89,7.95,85.88,17.27,31.21,10.39,59.39,26.09,85.26,46.11,11.94,9.23,23.44,19,34.91,28.88,2.67,2.29,4.39,5.67,6.55,8.55q-16.59.24-33.16.47c-24.32.36-42.84,18.95-42.89,43.21q-.1,47,0,94.08c0,19.78,12.38,39.71,31.82,41.56a461.86,461.86,0,0,0,89.54,0C1117.69,537.41,1128.09,518.77,1129.69,493.9Z"/><path class="cls-2" d="M983.25,568.42c13.81-.09,27.62.06,41.42-.32,35.06-.94,70.12-2,105.16-3.35,7.15-.29,9.69,2.84,9.86,9,.36,14,.63,27.94.69,41.91,0,6.53-2.82,9.85-10.21,9.74-34.53-.54-69.08-.63-103.63-.83-2.87,0-5.74.35-8.62.53l-2.64-.09.13.07-79-1.15-166.76-1.54q-57.3-.52-114.59-1c-18.67-.13-37.35,0-56,0H596l-1.52-.13c-25.74-.28-51.48-.63-77.22-.84q-53.16-.42-106.34-.68H350.4q-.94,28.58-1.9,57.34-1.87,54.85-3.78,109.73-1.67,48.26-3.32,96.5l-2.85,79.27q-1.2,33.09-2.37,66.18c-.33,9.53-3.92,12.61-13.37,11.24-4.71-.68-7.39-2.68-7.37-8.16.05-22.61-.22-45.21-.48-67.82,0-3.65-.62-7.29-1-10.94q0-38.05-.1-76.12l-.37-120.19a13.27,13.27,0,0,0,.36-2.33q-.51-66.4-1.09-132.83c0-.94-.6-1.88-1.16-3.51-16.14,0-32.21-.12-48.29,0-13,.13-26,.6-38.93.92.28,9.44.44,18.88.86,28.3q3.36,75.26,6.83,150.51c.93,23.37,1.8,46.74,2.83,70.11.83,18.87,1.86,37.74,2.8,56.6q1.15,33.06,2.29,66.11c.27,8.36-3.48,11.84-11.77,11.3-6.54-.42-8.63-4-9.09-10.35-1.92-26.71-4.31-53.4-6.56-80.1a18.3,18.3,0,0,0-.76-3c0-1.29.1-2.59,0-3.88Q205.94,832.79,200,760.91c-1.29-15.14-3-30.25-4.51-45.37q-2.78-36.19-5.57-72.37c-.65-8.33-1.45-16.64-2.25-25.77-13.73,0-26.87-.35-40,.13-7.87.29-10.39-3.76-10.51-10.42s2.54-10.77,10.33-10.53c12.58.4,25.17.11,38.66.11-1.31-13.45-2.43-24.87-3.55-36.29-2-25.4-4-50.8-6.13-76.19q-4.93-58.53-10.08-117-3-36.36-6.07-72.74-2.15-23.75-4.28-47.51c-2.39-30.46-4.69-60.94-7.2-91.39-3.36-40.69-6.9-81.37-10.34-122-.63-7.35-1-14.73-1.78-22.06-.57-5.38,2.06-8.17,6.92-8.54Q166.49,1.13,189.37,0c5.95-.27,7.89,3.37,8.12,9.16q3.67,91.25,7.74,182.48c.2,4.71.82,9.4,1.25,14.1.79,22.27,1.49,44.54,2.42,66.81.52,12.55,1.44,25.09,2.18,37.63q1.56,36.51,3.1,73a12.39,12.39,0,0,0-.34,2.31q3.63,86.13,7.31,172.25c.5,11.79,1.19,23.57,1.85,36.31l88.89-2.81c0-47.23,0-93.37,0-139.51a10,10,0,0,0-.55-2.28l-.42-120.18a25.4,25.4,0,0,0,.33-3.12q-.21-75.72-.52-151.44c0-6.53-.69-13.07-1-19.6.15-18.4.42-36.8.43-55.2,0-17.63-.06-35.27-.48-52.89-.16-6.88,3-9.75,9.35-9.7,14.73.12,29.47.3,44.19.73,6.15.18,7.54,4.38,7.34,9.83q-1.8,48.49-3.38,97c-.29,8.67-.37,17.34-.54,26q-3.07,80.42-6.13,160.83c-.45,12.3-.49,24.62-.71,36.93-.87,19.1-1.93,38.2-2.57,57.3-.86,25.64-1.39,51.29-2.07,76.94-.66,13.13-1.64,26.25-1.92,39.39-.34,15.69-.08,31.39-.08,46h41.85c12.85-.33,25.7-.55,38.54-1,27.28-1,54.56-2.12,81.84-3.19,23.18-.55,46.37-.94,69.54-1.69q115.38-3.7,230.74-7.66c26.06-.88,52.12-2,78.17-3,18.38-.43,36.76-.73,55.12-1.36C960.35,570,971.8,569.09,983.25,568.42Z"/><path class="cls-1" d="M344.72,786.84q1.89-54.87,3.78-109.73,1-28.73,1.9-57.34h60.51c11.18,9.8,21.87,20.23,33.64,29.25a132,132,0,0,0,69.56,27.13c14.24,1.3,28.35,4.15,42.51,6.3-6.84,8.58-7.19,17-.81,25.92,3.36,4.71,7.73,8.81,10.4,13.85,1.42,2.68,1.34,7.52-.25,10-1.19,1.83-5.86,1.55-9,1.87-1.08.1-2.27-.84-3.77-1.44-2.26,6.72-.19,9.88,6.32,10.68,6.68.82,12.21-1.22,15.71-6.79,4.18-6.66,3.32-13.82-.76-20.22-3.52-5.53-8.3-10.28-11.57-15.92-1.44-2.48-1.62-7-.28-9.34,1-1.77,5.68-2.74,8.2-2.08,4,1,4.68-.24,4.69-3.51,14.42,4.72,28.94,9.12,43.19,14.28,7.52,2.73,14.56,6.78,23.18,10.88,0-8-.19-14.92.1-21.85.1-2.59,1.31-5.14,2-7.71-.26,16.2-.92,32.41-.62,48.6.17,9.58,5.87,14,15.37,13.89,9.09-.09,12.82-5.74,14.54-13.62,25.39,16.23,47.68,36.09,67.5,58.68,18.07,20.6,33.09,43.25,43.69,68.65,6.64,15.92,12.67,32.11,19.81,47.81,5.19,11.42,11.75,22.21,18.29,34.39-12.47,3.44-24.8,7.3-37.36,10.21-26.51,6.12-53.06,12.1-79.74,17.45-16.4,3.29-33.05,5.46-49.65,7.64-1.83.24-5.08-2.3-6-4.31-6.75-15.05-12.88-30.37-19.57-45.44-11.36-25.56-31.57-43.1-54.63-57.32-11.64-7.18-24.51-12.6-37.32-17.54-7.43-2.87-15.82-3.3-23.8-4.67-24.5-4.2-49.46-6.66-73.38-13-19.72-5.23-38.55-14.35-57.14-23.08C370.36,803,357.77,794.43,344.72,786.84Z"/><path class="cls-1" d="M725.94,32.56c17,0,31.73-.25,46.4.09,9.17.2,18.33,1.1,27.46,2,20.85,2.05,41.77,3.65,62.48,6.66C880.66,44,898.92,47.77,917,52s36.28,8.49,53.7,14.76c25.29,9.12,50.44,19,74.7,30.53,21.45,10.21,42,22.54,62.25,35,26.93,16.62,50.89,37.22,72.54,60.21,22.18,23.56,41.9,49.24,56.67,78.11,8.33,16.27,14.14,33.81,21.28,50.7,10.16,24,13.49,49.69,16.47,75.08,3.44,29.36,6,59.06,1,88.69-.77,4.52-.11,9.29-.11,15.43-30.42-18.27-56.78-38.53-80.4-62.73a286.94,286.94,0,0,1-45.52-61.76c-9.06-16.33-16.29-33.87-22.62-51.49-11.14-31-27.52-57.85-55.76-75.78-13.42-8.52-27.4-16.84-42.21-22.3-13.06-4.81-27.61-5.6-41.53-8-16.49-2.84-33.18-4.75-49.5-8.38-45.85-10.2-85.52-32.75-121.82-62-26.36-21.25-49.55-45.31-67.45-74.08C740.6,61.08,733.94,47.28,725.94,32.56Z"/><path class="cls-3" d="M893.77,571.75c-26,1-52.11,2.12-78.17,3q-115.36,3.93-230.74,7.66c-23.17.75-46.36,1.14-69.55,1.69-2.5-2.54-4.81-5.31-7.53-7.59-13-10.94-26.42-21.41-39.08-32.72-9.13-8.15-17.3-17.37-25.9-26.12,1.16-2.91,2.65-5.74,3.4-8.76,1.61-6.45,5.34-8.32,12-8.07,14.74.56,29.54.62,44.27,0,7.22-.31,10.75,1.61,13,8.8,4,12.69,9.19,25,14,37.79L565.19,535,519.41,412.25h37.87l-10.69-39.81H501.27c1.2-4.61,2.17-8.35,3.27-12.59l-32.93-12.33c-3,7.05-6,13.2-8.16,19.62-1.57,4.57-4.06,5.86-8.74,5.76-14.44-.3-28.89-.11-43.56-.11-1,13.38-1.86,25.86-2.83,39.39H446L417.36,478.4c-1.15-2-2.48-4-3.42-6.13C402.36,446.19,391,420,379.19,394c-4.48-9.81-9.34-19.71-19.46-25.37.22-12.31.26-24.63.71-36.93q3-80.42,6.13-160.83a309.71,309.71,0,0,1,88,54.23C467,236,479.8,246.78,490.27,259.4,503,274.75,515.32,291,524.48,308.65c14.18,27.27,24.83,56.36,38.35,84,10.3,21.07,26.68,37.26,47.2,49,.08,6.32-.14,12.66.34,18.95.35,4.61-1.43,7.15-5.32,9.32-5.14,2.87-9.92,6.41-15,9.75,5.55,7.65,10.94,14.2,15.25,21.39a33.8,33.8,0,0,1,4.73,14.24c.74,9.06.22,18.23.22,27h38c0-14.38-.11-28.07.12-41.77,0-2.23,1-5.54,2.55-6.48,5.59-3.25,11.65-5.68,17.62-8.46,17.32,30.34,31.92,62.95,74.65,62.39q1.53-19.69,3.16-40.61c-22.26-2.57-32.84-17.95-41.64-35.36,12.9,2.33,26,4.08,38.68,7.17,10.53,2.55,20.7,6.6,31,10.15,7.1,2.44,14.1,5.14,21.14,7.72,1.54,3,3.18,5.92,4.6,9,9.74,20.94,25.44,34.19,48.69,37.45,5.93.83,12,.85,18,1.24a30.38,30.38,0,0,0,2.65,3.48C877.52,556.07,885.66,563.9,893.77,571.75Z"/><path class="cls-1" d="M599.05,621.43c18.68,0,37.36-.15,56,0q57.3.39,114.59,1L936.43,624q5.37,13,10.74,25.92Q957.57,674.95,968,700a125.29,125.29,0,0,0,42.14,53.48c13.65,10.08,26.5,21.54,43.45,25.54,15.94,3.76,32.15,6.34,48.25,9.37,2.2.42,4.48.46,9.51,1-5.08,5-8.15,8.65-11.88,11.48-35.44,26.89-71.66,52.57-111.86,72.09C973,880,958,886.4,944.24,894.87c-12.79,7.88-22.66,5.24-33.09-3.5-29.69-24.85-58.46-50.74-77.19-85.19-12.45-22.91-23.28-46.8-33.39-70.86-7.81-18.6-16.7-36.19-30.79-50.74-1.86-1.92-5.32-2.28-8-3.37l.41-.36-.33.43c-1.49-2.59-2.4-5.86-4.55-7.67-20.69-17.44-43.38-30.53-70.94-34.28-25.83-3.52-51.51-8.23-77.2-12.78C605.58,625.92,602.4,623.19,599.05,621.43Zm240.59,59.84h-9.41V742h9.39c0-7.44,0-14.26,0-21.07,0-8.93,1-9.54,11-6.68v28.44l9.09-.46V681.55h-9.5v22.26H839.64Zm98.91,61c0-18.36-.38-35.93.18-53.47.25-7.84-2.64-9.15-9.43-7.06v60.53Z"/><path class="cls-1" d="M195.46,715.54c1.51,15.12,3.22,30.23,4.51,45.37q6.08,71.87,11.88,143.76c.1,1.29,0,2.59,0,3.88-3.67-1.2-7.78-1.72-11-3.71-27.95-17.46-54.06-37.47-77.1-61a426.91,426.91,0,0,1-65.33-86.13c-24.94-43.3-41.07-89.61-52.21-137.87C3.05,606,2.23,591.57,0,575c8.25,2,14.51,3.1,20.54,5a300.4,300.4,0,0,1,91.35,47c29.12,21.88,54.92,47,76.26,76.55C190.88,707.31,193,711.52,195.46,715.54Z"/><path class="cls-1" d="M166.39,367.16q5.06,58.53,10.08,117c2.14,25.39,4.1,50.79,6.13,76.19-12.47-7.64-24.37-16.52-37.58-22.54a131.42,131.42,0,0,0-36.76-10.39C76.09,523.2,44,519.4,13.09,508.55c-6.76-2.37-9.15-5.83-7.41-11.92,5.8-20.32,10.94-40.93,18.37-60.67,7.26-19.27,16.74-37.73,25.77-56.29,4.09-8.4,9.47-16.18,14.24-24.25,2.4-4.07,5.22-5.24,10.39-4.31,26.24,4.71,52.61,8.7,78.92,13.05C157.76,364.89,162.05,366.15,166.39,367.16Z"/><path class="cls-2" d="M704.75,472c8.8,17.41,19.38,32.79,41.64,35.36q-1.62,20.93-3.16,40.61c-42.73.56-57.33-32.05-74.65-62.39-6,2.78-12,5.21-17.62,8.46-1.6.94-2.52,4.25-2.55,6.48-.23,13.7-.12,27.39-.12,41.77h-38c0-8.79.52-18-.22-27A33.8,33.8,0,0,0,605.32,501c-4.31-7.19-9.7-13.74-15.25-21.39,5.06-3.34,9.84-6.88,15-9.75,3.89-2.17,5.67-4.71,5.32-9.32-.48-6.29-.26-12.63-.34-18.95V400.94h-20c4.6-13.78,8.89-26.63,13.45-40.31h54.21c20.49.09,41,.89,61.47,0,11.56-.51,22.13,10.17,21.11,21.05-.82,8.85,0,17.84.07,26.77-.09,5-.17,10-.27,15-.36,17.85-6.51,32.24-23.88,39.94a83.6,83.6,0,0,0-9.82,5C705.46,468.89,705.28,470.74,704.75,472Zm-56.16-70.9v50.53c14.92-6,29.51-11.13,43.42-17.74,4.3-2,8.41-7.56,9.63-12.25,1.65-6.35.41-13.44.41-20.54Z"/><path class="cls-2" d="M1129.69,493.9c-1.6,24.87-12,43.51-32.3,45.55a461.86,461.86,0,0,1-89.54,0c-19.44-1.85-31.79-21.78-31.82-41.56q-.07-47,0-94.08c.05-24.26,18.57-42.85,42.89-43.21q16.58-.25,33.16-.47c10.76.16,21.53.34,32.29.46,25.52.31,44.74,19.49,44.9,45Q1129.57,449.74,1129.69,493.9Zm-122.57-44.27h-.18c0,7.39-.23,14.79,0,22.17.71,18.91,15.23,33.1,34.11,33.44,7.91.15,15.84.19,23.75,0,18.29-.5,32.67-14.43,33.16-32.58q.59-21,0-41.95c-.56-18.87-15.44-33.16-34.19-33.37q-11.87-.13-23.74,0a32.8,32.8,0,0,0-32.85,30.95C1006.76,435.37,1007.12,442.51,1007.12,449.63Z"/><path class="cls-1" d="M211.08,310.19c-.74-12.54-1.66-25.08-2.18-37.63-.93-22.27-1.63-44.54-2.42-66.81,14.4-9.92,28.68-20,43.23-29.7,11.27-7.48,22.49-15.19,34.51-21.29,4.94-2.51,11.9-1.26,17.95-1.3,2.49,0,5,1.07,7.49,1.66.36,6.53,1,13.07,1,19.6q.38,75.72.52,151.44a25.4,25.4,0,0,1-.33,3.12c-2.24-.63-4.46-1.32-6.73-1.86-15.3-3.61-30.51-7.77-46-10.63S226.8,312.34,211.08,310.19Z"/><path class="cls-1" d="M338.55,962.61l2.85-79.27c86.07,5.31,161.15,35.37,223,99-10.4.83-19.6,2.34-28.75,2.13-28.61-.66-57.26-1.17-85.78-3.29-19.5-1.45-38.86-5.19-58.19-8.45C373.92,969.76,356.26,966,338.55,962.61Z"/><path class="cls-1" d="M313.9,877q.06,38.07.1,76.12c-11.16-3.2-22.61-5.65-33.42-9.79C266,937.77,252,930.91,237.74,924.61c-.94-18.86-2-37.73-2.8-56.6-1-23.37-1.9-46.74-2.83-70.11a9.08,9.08,0,0,1,1.45,1.81c11.64,27.15,31.61,46.79,56.12,62.33C297.69,867.12,305.83,872,313.9,877Z"/><path class="cls-4" d="M673.26,729.92c-1.72,7.88-5.45,13.53-14.54,13.62-9.5.1-15.2-4.31-15.37-13.89-.3-16.19.36-32.4.62-48.6l7.16-.15a81.68,81.68,0,0,1,1.07,8.47c.32,13.12.28,26.24.91,39.34.1,2.12,2.92,4.11,4.48,6.15,1.75-1.78,3.76-3.38,5.14-5.41.81-1.17.82-3,.82-4.58,0-14.16-.11-28.32-.18-42.48l9.89-2.21Z"/><path class="cls-4" d="M761.74,681.21v8.45c-1.77-.45-3.23-1.25-4.56-1.08-2.7.36-6.58.43-7.68,2.12a10,10,0,0,0-.41,8.65c2.56,4.8,7.08,8.58,9.54,13.42,2.64,5.2,5.29,11.12,5.34,16.75.08,10.5-11.74,17.3-21.1,12.56-2.29-1.16-3.1-5.27-4.59-8l1.89-1.18c.93.33,1.91,1,2.79.94,3.58-.45,8.82,0,10.23-2.08,1.6-2.36.7-7.5-.8-10.62-2-4.15-6-7.3-8.48-11.29-2.31-3.7-4.82-7.8-5.39-12-1.7-12.43,6.23-19.44,18.65-17.3,1.55.27,3.1.47,4.65.72l.33-.43Z"/><path class="cls-4" d="M575.48,685.45c0,3.27-.73,4.55-4.69,3.51-2.52-.66-7.19.31-8.2,2.08-1.34,2.38-1.16,6.86.28,9.34,3.27,5.64,8,10.39,11.57,15.92,4.08,6.4,4.94,13.56.76,20.22-3.5,5.57-9,7.61-15.71,6.79-6.51-.8-8.58-4-6.32-10.68,1.5.6,2.69,1.54,3.77,1.44,3.16-.32,7.83,0,9-1.87,1.59-2.46,1.67-7.3.25-10-2.67-5-7-9.14-10.4-13.85-6.38-8.93-6-17.34.81-25.92C565.67,678.29,572.5,679.38,575.48,685.45Z"/><path class="cls-3" d="M156,246.91q2.13,23.76,4.28,47.51l-35-16.47c9.22-9.06,17-16.62,24.63-24.25C152.09,251.56,154,249.18,156,246.91Z"/><path class="cls-3" d="M663.37,682.39c.07,14.16.17,28.32.18,42.48,0,1.55,0,3.41-.82,4.58-1.38,2-3.39,3.63-5.14,5.41-1.56-2-4.38-4-4.48-6.15-.63-13.1-.59-26.22-.91-39.34a81.68,81.68,0,0,0-1.07-8.47c1.13,1.9,3.17,3.75,3.25,5.69.35,8.62.08,17.27.18,25.91.07,5.72.19,5.71,7.43,7.46,0-9.73-.11-19.26.06-28.79C662.1,688.24,662.91,685.32,663.37,682.39Z"/><path class="cls-1" d="M594.47,621.29l1.52.13Z"/><path class="cls-2" d="M866.8,544.7c-6-.39-12-.41-18-1.24-23.25-3.26-39-16.51-48.69-37.45-1.42-3-3.06-6-4.6-9-9.4-25-12.07-51.11-13-77.53.63-17.58,1.25-35.15,1.9-53.29h40.34q-1.14,30.58-2.3,61.16c.49,7.59-.11,15.44,1.66,22.72,11,45.07,23.8,52.05,59.42,48.64.26,0,.53,0,.79-.06,8.09-1,12.27-5.21,12.38-13.55.16-12.9-.12-25.79-.21-38.69.1-14.23.24-28.46.29-42.69s0-28.4,0-43.21l38.8-5.29c0,40.66,0,80.14,0,119.63,0,2.6.31,5.21.47,7.82-.17,11.84-1.07,23.72-.34,35.49.9,14.58-7.63,20.24-19.53,21.61C899.81,541.69,883.3,543.09,866.8,544.7Z"/><path class="cls-3" d="M1015.28,625l2.64.09Z"/><path class="cls-3" d="M311.32,449.46a10,10,0,0,1,.55,2.28c0,46.14,0,92.28,0,139.51L223,594.06c-.66-12.74-1.35-24.52-1.85-36.31q-3.71-86.11-7.31-172.25a12.39,12.39,0,0,1,.34-2.31c3.19,1.68,6.32,3.49,9.58,5a269.3,269.3,0,0,1,55.47,35C290,431.88,300.63,440.69,311.32,449.46Z"/><path class="cls-3" d="M313.53,756.8c-1.94-1.12-4.16-1.95-5.79-3.42-29.9-27-51.06-60.2-67.48-96.6-5-11.06-8.8-22.64-13.25-33.94a19.33,19.33,0,0,0-2.59-3.75c13-.32,26-.79,38.93-.92,16.08-.16,32.15,0,48.29,0,.56,1.63,1.15,2.57,1.16,3.51q.6,66.42,1.09,132.83A13.27,13.27,0,0,1,313.53,756.8Z"/><path class="cls-3" d="M355.09,502.91c7.16,14.18,14.74,28.17,21.36,42.59C382.18,558,386.79,571,392,583.75a28.72,28.72,0,0,0,2.94,4.56H353.09c0-14.62-.26-30.32.08-46C353.45,529.16,354.43,516,355.09,502.91Z"/><path class="cls-2" d="M442.8,517.67c-4.1,9.36-8.21,18.72-12.55,28.6l-35.84-10.89c7.74-19.21,15.34-38.1,22.95-57L446,412.18H408.32c1-13.53,1.87-26,2.83-39.39,14.67,0,29.12-.19,43.56.11,4.68.1,7.17-1.19,8.74-5.76,2.19-6.42,5.18-12.57,8.16-19.62l32.93,12.33c-1.1,4.24-2.07,8-3.27,12.59h45.32l10.69,39.81H519.41L565.19,535l-35.74,12.37c-4.84-12.82-10.07-25.1-14-37.79-2.24-7.19-5.77-9.11-13-8.8-14.73.64-29.53.58-44.27,0-6.62-.25-10.35,1.62-12,8.07C445.45,511.93,444,514.76,442.8,517.67Zm39.87-95.07c-7,16.54-13.23,31.42-19.66,46.67h37.05C494.28,453.74,488.8,439.05,482.67,422.6Z"/><path class="cls-4" d="M839.64,681.27v22.54h10.63V681.55h9.5v60.63l-9.09.46V714.2c-10.07-2.86-11-2.25-11,6.68,0,6.81,0,13.63,0,21.07h-9.39V681.27Z"/><path class="cls-4" d="M938.55,742.26H929.3V681.73c6.79-2.09,9.68-.78,9.43,7.06C938.17,706.33,938.55,723.9,938.55,742.26Z"/><path class="cls-3" d="M1007.12,449.63c0-7.12-.36-14.26.07-21.36A32.8,32.8,0,0,1,1040,397.32q11.87-.13,23.74,0c18.75.21,33.63,14.5,34.19,33.37q.62,21,0,41.95c-.49,18.15-14.87,32.08-33.16,32.58-7.91.21-15.84.17-23.75,0-18.88-.34-33.4-14.53-34.11-33.44-.28-7.38,0-14.78,0-22.17Zm67-36.6c-4.78,3.22-7.86,6.36-11.57,7.57-7.94,2.6-12.76,7.59-15.64,15.26-1.13,3-3.21,7-5.73,7.83-11,3.52-16.73,10.6-21.08,21.28-2.67,6.57-1.91,9.83,3.43,15.81,3.52-5.37,7.31-9.65,9.31-14.65,2.07-5.17,5.29-7.63,10.08-10,5.08-2.56,11.27-6.31,13.17-11.06,3.15-7.91,7.41-12.39,15.4-15.06,3.62-1.2,7.06-5.54,8.57-9.26C1080.7,419.14,1076.11,415.46,1074.13,413Zm11.13,14.11c-4.24,2.4-8.29,4.09-11.6,6.72-4.77,3.78-10.54,7.49-13.06,12.61-3,6.11-6.27,9.9-12.58,12.8-5,2.3-8.87,7.59-12.58,12.1-3.28,4-5.64,8.73-8.66,13.54,7.92,9,13,8.21,18-4.09.4-1,.51-2.21,1.19-2.9,3-3,5.58-7.16,9.23-8.56,7.78-3,12.36-8,15.58-15.49a18.29,18.29,0,0,1,8.6-8.92C1090.35,440.22,1091.45,437.71,1085.26,427.14ZM1067.84,411c-15.42-6.4-29-1.73-32.74,10.87-1.93,6.46-5.64,9.39-11.39,11.68-3,1.2-7,4-7.49,6.6-1.1,6.21-.35,12.76-.35,21.47,2.18-3.2,3.44-4.29,3.72-5.58,1.64-7.58,6.48-11,13.66-13.51,4.36-1.55,8.93-6.28,10.62-10.65,2.71-7,6-11.66,13.56-13.72C1061,417.19,1063.86,413.84,1067.84,411Zm-23.52,84.45c5-1.26,12-1.19,13-3.65,2.92-6.81,8.19-8.52,13.85-11.51,4.68-2.47,7.85-8,11.33-12.41a23.36,23.36,0,0,0,3.27-7.08c1.47-4.49,2.65-9.08,4.41-15.21-10.66,2.63-15.13,7.8-18,15.1-1.29,3.22-3.46,7.76-6.1,8.47C1053.52,472.56,1047.36,481,1044.32,495.45Zm-11.11-82.86-1.91-1.25-14.16,17.59C1028.1,427.52,1031.33,423.5,1033.21,412.59Zm29.09,78.51,2,3.29,16.2-9.64-2-3.28Z"/><path class="cls-3" d="M482.67,422.6c6.13,16.45,11.61,31.14,17.39,46.67H463C469.44,454,475.7,439.14,482.67,422.6Z"/><path class="cls-4" d="M1074.13,413c2,2.43,6.57,6.11,5.94,7.68-1.51,3.72-5,8.06-8.57,9.26-8,2.67-12.25,7.15-15.4,15.06-1.9,4.75-8.09,8.5-13.17,11.06-4.79,2.41-8,4.87-10.08,10-2,5-5.79,9.28-9.31,14.65-5.34-6-6.1-9.24-3.43-15.81,4.35-10.68,10.08-17.76,21.08-21.28,2.52-.8,4.6-4.84,5.73-7.83,2.88-7.67,7.7-12.66,15.64-15.26C1066.27,419.39,1069.35,416.25,1074.13,413Z"/><path class="cls-4" d="M1085.26,427.14c6.19,10.57,5.09,13.08-5.89,17.81a18.29,18.29,0,0,0-8.6,8.92c-3.22,7.51-7.8,12.51-15.58,15.49-3.65,1.4-6.28,5.53-9.23,8.56-.68.69-.79,1.93-1.19,2.9-5,12.3-10.07,13.09-18,4.09,3-4.81,5.38-9.55,8.66-13.54,3.71-4.51,7.57-9.8,12.58-12.1,6.31-2.9,9.56-6.69,12.58-12.8,2.52-5.12,8.29-8.83,13.06-12.61C1077,431.23,1081,429.54,1085.26,427.14Z"/><path class="cls-4" d="M1067.84,411c-4,2.84-6.87,6.19-10.41,7.16-7.53,2.06-10.85,6.73-13.56,13.72-1.69,4.37-6.26,9.1-10.62,10.65-7.18,2.54-12,5.93-13.66,13.51-.28,1.29-1.54,2.38-3.72,5.58,0-8.71-.75-15.26.35-21.47.46-2.62,4.48-5.4,7.49-6.6,5.75-2.29,9.46-5.22,11.39-11.68C1038.86,409.27,1052.42,404.6,1067.84,411Z"/><path class="cls-4" d="M1044.32,495.45c3-14.46,9.2-22.89,21.71-26.29,2.64-.71,4.81-5.25,6.1-8.47,2.92-7.3,7.39-12.47,18-15.1-1.76,6.13-2.94,10.72-4.41,15.21a23.36,23.36,0,0,1-3.27,7.08c-3.48,4.44-6.65,9.94-11.33,12.41-5.66,3-10.93,4.7-13.85,11.51C1056.27,494.26,1049.32,494.19,1044.32,495.45Z"/><path class="cls-4" d="M1033.21,412.59c-1.88,10.91-5.11,14.93-16.07,16.34l14.16-17.59Z"/><path class="cls-4" d="M1062.3,491.1l16.21-9.63,2,3.28-16.2,9.64Z"/></svg>